# xmcd CD database file
#
# Track frame offsets:
#	151
#	16788
#	31469
#	46890
#	63057
#	80046
#	95099
#	113740
#
# Disc length: 1701 seconds
#
# Revision: 0
# Processed by: cddbd v1.5.2PL0 Copyright (c) Steve Scherf et al.
# Submitted via: CDex 1.70beta2
#
DISCID=5b06a308
DTITLE=Deadwood - in the heartland
DYEAR=1999
DGENRE=Blues
TTITLE0=what does it take?
TTITLE1=too white
TTITLE2=that's all
TTITLE3=world gone crazy
TTITLE4=the thrill is gone
TTITLE5=heartland
TTITLE6=e-male
TTITLE7=sixteen tons
EXTD=YEAR: 1999
EXTT0=
EXTT1=
EXTT2=
EXTT3=
EXTT4=
EXTT5=
EXTT6=
EXTT7=
PLAYORDER=
